<?xml version="1.0" encoding="UTF-8"?>
<svg version="1.1" xmlns="http://www.w3.org/2000/svg" width="395" height="168">
<path d="M0 0 C2.58392884 -0.00015537 5.16785791 -0.00165061 7.75178528 -0.00440979 C13.1366409 -0.00578571 18.52120692 0.00618309 23.90600586 0.02954102 C30.0887128 0.05617821 36.27104419 0.057877 42.45378894 0.04615265 C48.46167811 0.03529355 54.46939872 0.04172957 60.4772892 0.05570793 C63.00756759 0.060189 65.53785694 0.06058888 68.06813622 0.05664253 C93.79519877 0.03528586 116.10002453 2.83494817 135.703125 21.2109375 C148.3106753 33.99328919 152.45498778 49.54149367 152.35546875 67.18359375 C152.35977402 68.90280029 152.35977402 68.90280029 152.36416626 70.65673828 C152.36619005 73.05322775 152.36077963 75.44973439 152.34814453 77.84619141 C152.3319477 81.51501963 152.3481123 85.18276612 152.3671875 88.8515625 C152.36520709 91.19140867 152.36136761 93.53125418 152.35546875 95.87109375 C152.36154144 96.96381592 152.36761414 98.05653809 152.37387085 99.18237305 C152.2878616 108.44828983 152.2878616 108.44828983 148.95703125 112.49609375 C148.56515625 113.07359375 148.17328125 113.65109375 147.76953125 114.24609375 C144.78107956 116.30709492 141.50009652 116.6208984 137.95703125 116.49609375 C134.71565475 115.05548197 132.2297878 113.2234016 129.95703125 110.49609375 C128.95705327 107.49615982 128.82700798 105.49155849 128.81518555 102.35717773 C128.80463387 100.78425209 128.80463387 100.78425209 128.79386902 99.17955017 C128.78970474 98.04522049 128.78554047 96.91089081 128.78125 95.7421875 C128.75804026 93.3365799 128.73392246 90.93098093 128.70898438 88.52539062 C128.67396192 84.73586353 128.64457768 80.94665119 128.63110352 77.15698242 C128.61554752 73.49749542 128.57527502 69.83892878 128.53125 66.1796875 C128.53411263 64.4994474 128.53411263 64.4994474 128.53703308 62.78526306 C128.38181466 52.70762999 125.95870871 44.71070526 118.9296875 37.30859375 C107.58264422 26.88279557 94.5705671 24.3506686 79.63427734 24.33496094 C78.50175537 24.32999603 77.3692334 24.32503113 76.20239258 24.31991577 C72.46174507 24.30533118 68.72114 24.29849767 64.98046875 24.29296875 C62.37220255 24.28721351 59.76393636 24.28145582 57.15567017 24.2756958 C52.38489235 24.26613592 47.61412363 24.26023237 42.84333742 24.25719905 C35.85010967 24.25272672 28.8570782 24.23521119 21.86391008 24.20619845 C15.78239672 24.18185539 9.7009635 24.17424881 3.61940384 24.1725235 C1.04476479 24.16950806 -1.52987366 24.16151728 -4.10448074 24.14833832 C-7.71775159 24.13116537 -11.33055187 24.13318589 -14.94384766 24.13964844 C-15.99466522 24.13043365 -17.04548279 24.12121887 -18.12814331 24.11172485 C-31.52679577 24.18629216 -44.13174121 27.83003557 -54.5 36.56640625 C-62.92101347 45.28426435 -64.65993997 55.44459471 -64.57421875 67.21484375 C-64.57995911 68.98353821 -64.57995911 68.98353821 -64.58581543 70.78796387 C-64.58852103 73.26538962 -64.58125543 75.7428446 -64.56445312 78.22021484 C-64.54302614 81.98600695 -64.56430336 85.74989137 -64.58984375 89.515625 C-64.58720024 91.93620208 -64.58207478 94.35677798 -64.57421875 96.77734375 C-64.58231567 97.88911987 -64.5904126 99.000896 -64.59875488 100.1463623 C-64.47580196 110.52979593 -62.04198513 119.70807198 -54.7109375 127.35546875 C-44.27490457 135.72874261 -31.79378823 139.8262088 -18.51318359 139.75146484 C-17.71356705 139.7550853 -16.9139505 139.75870575 -16.09010315 139.76243591 C-14.37144477 139.76927601 -12.65276493 139.77184558 -10.93409348 139.77048874 C-8.2093027 139.76951532 -5.4848976 139.78255939 -2.76016235 139.79946899 C4.98050035 139.84550982 12.72111886 139.87035672 20.46191406 139.87695312 C25.21220249 139.8819751 29.96208119 139.90624972 34.71223068 139.94227982 C36.51504428 139.95205216 38.31791437 139.95442381 40.12074661 139.94910812 C42.64295433 139.94201525 45.16394262 139.95936121 47.68603516 139.98193359 C48.42284012 139.97376114 49.15964508 139.96558868 49.91877747 139.95716858 C55.4344898 140.04464725 58.50235969 141.47913798 62.95703125 144.49609375 C65.6063361 147.83652161 65.31957845 151.36305571 64.95703125 155.49609375 C63.13301312 159.72013573 61.06986437 161.52602388 56.95703125 163.49609375 C54.21265251 163.77581583 51.70080059 163.89673927 48.96069336 163.8684082 C48.16969238 163.87205887 47.37869141 163.87570953 46.5637207 163.87947083 C43.95371887 163.88756224 41.3443411 163.87396955 38.734375 163.859375 C36.90938823 163.85885586 35.08440089 163.85937564 33.25941467 163.86088562 C29.43205423 163.86079594 25.60490457 163.85038093 21.77758789 163.83227539 C16.90133942 163.8097011 12.02540178 163.80902422 7.14911556 163.81579304 C3.37670696 163.81915736 -0.39563247 163.81245505 -4.16802788 163.8026638 C-5.96393915 163.79884533 -7.75985817 163.79764949 -9.55577278 163.79924965 C-32.30019663 163.80263515 -53.72177404 159.94359601 -70.94921875 143.71484375 C-80.24965248 133.85916025 -87.1001482 121.91732073 -87.2199707 108.15795898 C-87.23280594 106.87239609 -87.24564117 105.58683319 -87.25886536 104.26231384 C-87.26703693 102.85977569 -87.27447986 101.45723312 -87.28125 100.0546875 C-87.28532553 99.34393633 -87.28940105 98.63318516 -87.29360008 97.90089607 C-87.31443664 94.13404765 -87.32874508 90.36723532 -87.33813477 86.6003418 C-87.34915506 82.73606016 -87.38351013 78.87236137 -87.42330647 75.00828457 C-87.44963682 72.01484717 -87.45784132 69.02154476 -87.46141624 66.02800179 C-87.46624511 64.60522619 -87.47775164 63.18245509 -87.49645424 61.75979424 C-87.7055191 44.79338914 -82.0267939 32.14261753 -70.44921875 19.8125 C-50.85861182 0.95336053 -25.61598677 -0.12668685 0 0 Z " fill="#02A9D7" transform="translate(90.04296875,1.50390625)"/>
<path d="M0 0 C1.18667519 -0.01029488 1.18667519 -0.01029488 2.39732361 -0.02079773 C5.01091549 -0.0390799 7.6239067 -0.03522053 10.23754883 -0.02954102 C12.07058403 -0.03410766 13.90361752 -0.03941467 15.73664856 -0.04542542 C19.58589608 -0.05436346 23.43493632 -0.05193198 27.28417969 -0.04199219 C32.16674857 -0.03060104 37.04858354 -0.05055729 41.93105602 -0.07990932 C45.72431344 -0.09846848 49.5174022 -0.09793849 53.31069374 -0.0922718 C55.10724212 -0.09212045 56.90380334 -0.09800778 58.70030785 -0.11056328 C73.52095535 -0.1994228 89.25033364 0.81280091 102.50708008 8.15405273 C103.48366577 8.67165161 103.48366577 8.67165161 104.47998047 9.19970703 C119.44168292 17.37362484 129.87800387 29.38859182 135.046875 45.68164062 C136.57876924 51.94376237 136.33601359 58.35531887 136.34301758 64.76342773 C136.34946002 66.15814342 136.35618941 67.5528578 136.3631897 68.9475708 C136.37511425 71.86245857 136.37887562 74.77722827 136.37768555 77.69213867 C136.37748284 81.39483777 136.40475599 85.09676524 136.43922997 88.79928207 C136.46166477 91.67868401 136.46551805 94.55790524 136.46446609 97.43738556 C136.46791867 99.45560926 136.48947576 101.47377657 136.51156616 103.49188232 C136.43315922 119.47842895 130.8001357 131.55369483 119.88208008 143.09155273 C99.15395547 162.91476604 75.11409985 163.72223608 48.14379883 163.70483398 C45.62237987 163.70872829 43.10096155 163.71306445 40.57954407 163.71781921 C35.31033707 163.72525305 30.04117946 163.72515153 24.77197266 163.71972656 C18.72403641 163.71369454 12.67633326 163.72599255 6.62843674 163.74729663 C0.75888609 163.76719451 -5.11057488 163.77006783 -10.98015404 163.76656151 C-13.45379368 163.76707092 -15.92743736 163.77223628 -18.40105629 163.78237343 C-44.96741873 163.87789713 -68.2478602 160.82824103 -88.15307617 141.47045898 C-97.79958914 131.49431642 -103.05239066 118.67632993 -103.15405273 104.86108398 C-103.16366028 103.79978271 -103.17326782 102.73848145 -103.1831665 101.64501953 C-103.18741638 100.51362549 -103.19166626 99.38223145 -103.19604492 98.21655273 C-103.201745 97.04068604 -103.20744507 95.86481934 -103.21331787 94.65332031 C-103.22274439 92.17212824 -103.2292925 89.69092377 -103.2331543 87.2097168 C-103.24288541 83.41750366 -103.27394216 79.62582691 -103.30541992 75.83374023 C-103.31194809 73.41968094 -103.31719929 71.00561779 -103.32104492 68.59155273 C-103.33339172 67.46015869 -103.34573853 66.32876465 -103.35845947 65.16308594 C-103.34251334 59.52393399 -103.30257254 55.21591658 -99.99291992 50.40405273 C-97.06083763 47.96065083 -95.30469671 47.43745739 -91.49291992 47.02905273 C-87.68114314 47.43745739 -85.92500221 47.96065083 -82.99291992 50.40405273 C-79.0513571 56.12690448 -79.58588911 62.029796 -79.62182617 68.70483398 C-79.60444179 71.15079891 -79.58685743 73.59676242 -79.5690918 76.04272461 C-79.55903033 79.8805607 -79.5554207 83.71830362 -79.55712891 87.55615234 C-79.55354639 91.27265872 -79.52615466 94.98845466 -79.49682617 98.70483398 C-79.5050087 99.84261795 -79.51319122 100.98040192 -79.5216217 102.15266418 C-79.4290254 112.12774413 -76.79881324 119.25890552 -69.96557617 126.55639648 C-58.73522971 137.07511703 -45.5458519 139.54954162 -30.67016602 139.56518555 C-29.53764404 139.57015045 -28.40512207 139.57511536 -27.23828125 139.58023071 C-23.49763374 139.59481531 -19.75702867 139.60164881 -16.01635742 139.60717773 C-13.40809122 139.61293298 -10.79982503 139.61869066 -8.19155884 139.62445068 C-3.42078102 139.63401057 1.3499877 139.63991412 6.12077391 139.64294744 C13.11400166 139.64741976 20.10703313 139.6649353 27.10020125 139.69394803 C33.18171461 139.71829109 39.26314783 139.72589768 45.34470749 139.72762299 C47.91934654 139.73063842 50.49398499 139.73862921 53.06859207 139.75180817 C56.68186291 139.76898112 60.2946632 139.76696059 63.90795898 139.76049805 C65.48418533 139.77432022 65.48418533 139.77432022 67.09225464 139.78842163 C81.04955399 139.7107453 94.09638699 135.59840634 104.51098633 126.03295898 C112.40385536 117.4394175 113.31705191 108.48985561 113.30786133 97.25952148 C113.31428902 95.5120739 113.31428902 95.5120739 113.32084656 93.72932434 C113.32657497 91.27089079 113.32710113 88.81244029 113.32275391 86.35400391 C113.31959946 82.61452952 113.343054 78.87585102 113.3684082 75.13647461 C113.37068205 72.73999122 113.3713843 70.34350573 113.37036133 67.94702148 C113.38417595 66.28560371 113.38417595 66.28560371 113.39826965 64.59062195 C113.33207649 53.3497174 111.0482067 44.52309724 103.00708008 36.40405273 C92.72301264 27.97787339 80.74871969 24.0863007 67.5690918 24.1328125 C66.77922882 24.12758575 65.98936584 24.12235901 65.17556763 24.11697388 C63.47819861 24.10681326 61.78079912 24.1009675 60.08340073 24.09909248 C57.39221697 24.09539782 54.7013916 24.0785898 52.01028442 24.05833435 C44.36524115 24.00320058 36.72014783 23.97220927 29.07495117 23.94775391 C24.38306873 23.93184792 19.69144616 23.90160731 14.99969864 23.86298943 C13.2192168 23.85137729 11.43868849 23.84540941 9.65816879 23.8453083 C7.16726352 23.84511545 4.67707304 23.82679372 2.1862793 23.8046875 C1.09509796 23.81155327 1.09509796 23.81155327 -0.01812744 23.81855774 C-5.11790831 23.74689525 -8.53966654 22.71751142 -12.99291992 20.40405273 C-15.50711918 17.48433747 -15.95632939 15.74556436 -16.36791992 11.90405273 C-15.9623402 8.118642 -15.36653215 6.35060584 -12.99291992 3.40405273 C-8.81100118 0.20810379 -5.08847247 -0.03098796 0 0 Z " fill="#02A9D7" transform="translate(256.992919921875,1.595947265625)"/>
<path d="M0 0 C14 0 14 0 19 4 C20.3729863 6.7459726 20.12412634 8.9589047 20 12 C19.67 12.99 19.34 13.98 19 15 C19.66 15.66 20.32 16.32 21 17 C21.79364729 23.91606926 21.79364729 23.91606926 18.9921875 27.7421875 C15.04478642 30.72077474 12.46319707 30.5877493 7.6875 30.3125 C5.150625 30.209375 2.61375 30.10625 0 30 C0 20.1 0 10.2 0 0 Z M6 6 C6 7.98 6 9.96 6 12 C8.31 12 10.62 12 13 12 C14.01111093 8.95086772 14.01111093 8.95086772 13 6 C10.69 6 8.38 6 6 6 Z M6 18 C6 19.98 6 21.96 6 24 C8.97 24 11.94 24 15 24 C15.042721 22.33388095 15.04063832 20.66617115 15 19 C14.01732141 17.79438816 14.01732141 17.79438816 12.15234375 17.90234375 C10.1015625 17.93489583 8.05078125 17.96744792 6 18 Z " fill="#07ABD8" transform="translate(28,68)"/>
<path d="M0 0 C13.30494668 -0.82420024 13.30494668 -0.82420024 17.5546875 1.2421875 C20.27785216 3.69416564 21.7204711 5.7282502 22.51171875 9.328125 C22.73880666 14.05781809 21.91421281 16.29100187 19 20 C19.75285597 22.59047977 19.75285597 22.59047977 21 25 C21 25.99 21 26.98 21 28 C19.02 28 17.04 28 15 28 C14.814375 27.360625 14.62875 26.72125 14.4375 26.0625 C13.05753944 23.57873787 13.05753944 23.57873787 9.375 23.25 C8.26125 23.1675 7.1475 23.085 6 23 C6 24.65 6 26.3 6 28 C4.02 28 2.04 28 0 28 C0 18.76 0 9.52 0 0 Z M6 6 C6 9.63 6 13.26 6 17 C9.41656024 17.16677282 9.41656024 17.16677282 13 17 C15.37994368 15.05667668 15.37994368 15.05667668 15.25 11.5 C15.37994368 7.94332332 15.37994368 7.94332332 13 6 C9.41656024 5.83322718 9.41656024 5.83322718 6 6 Z " fill="#09ACD8" transform="translate(53,70)"/>
<path d="M0 0 C2.5 0.125 2.5 0.125 3.5 1.125 C3.57205511 2.81108966 3.58386068 4.50000659 3.5625 6.1875 C3.55347656 7.10660156 3.54445313 8.02570313 3.53515625 8.97265625 C3.52355469 9.68292969 3.51195312 10.39320312 3.5 11.125 C5.81 11.125 8.12 11.125 10.5 11.125 C10.48839844 10.41472656 10.47679687 9.70445313 10.46484375 8.97265625 C10.45130859 7.59400391 10.45130859 7.59400391 10.4375 6.1875 C10.42589844 5.27097656 10.41429687 4.35445313 10.40234375 3.41015625 C10.5 1.125 10.5 1.125 11.5 0.125 C14 0 14 0 16.5 0.125 C17.5 1.125 17.5 1.125 17.61352539 3.71704102 C17.60828857 4.84295654 17.60305176 5.96887207 17.59765625 7.12890625 C17.59443359 8.34384766 17.59121094 9.55878906 17.58789062 10.81054688 C17.57951172 12.08994141 17.57113281 13.36933594 17.5625 14.6875 C17.55798828 15.97076172 17.55347656 17.25402344 17.54882812 18.57617188 C17.53699545 21.75916022 17.52051068 24.94205762 17.5 28.125 C15.50045254 28.16754356 13.49958364 28.16580783 11.5 28.125 C10.5 27.125 10.5 27.125 10.40234375 24.83984375 C10.41394531 23.92332031 10.42554688 23.00679687 10.4375 22.0625 C10.44652344 21.14339844 10.45554687 20.22429687 10.46484375 19.27734375 C10.47644531 18.56707031 10.48804688 17.85679688 10.5 17.125 C8.19 17.125 5.88 17.125 3.5 17.125 C3.51160156 17.83527344 3.52320313 18.54554687 3.53515625 19.27734375 C3.54869141 20.65599609 3.54869141 20.65599609 3.5625 22.0625 C3.57410156 22.97902344 3.58570313 23.89554688 3.59765625 24.83984375 C3.5 27.125 3.5 27.125 2.5 28.125 C0.50041636 28.16580783 -1.50045254 28.16754356 -3.5 28.125 C-3.52886338 23.64584672 -3.54675187 19.16671709 -3.5625 14.6875 C-3.57087891 13.40810547 -3.57925781 12.12871094 -3.58789062 10.81054688 C-3.59111328 9.59560547 -3.59433594 8.38066406 -3.59765625 7.12890625 C-3.60289307 6.00299072 -3.60812988 4.8770752 -3.61352539 3.71704102 C-3.46314571 0.28353325 -3.42370175 0.17118509 0 0 Z " fill="#13AFDA" transform="translate(275.5,69.875)"/>
<path d="M0 0 C2.5 0.125 2.5 0.125 3.5 1.125 C3.57179964 2.64428038 3.58392007 4.16667482 3.5625 5.6875 C3.55347656 6.51378906 3.54445313 7.34007813 3.53515625 8.19140625 C3.51775391 9.14853516 3.51775391 9.14853516 3.5 10.125 C5.90877257 10.01158466 5.90877257 10.01158466 8.5 9.125 C10.65543411 6.27674779 11.85089967 3.6301418 12.5 0.125 C14.48 0.125 16.46 0.125 18.5 0.125 C18.83522272 4.929859 17.94734538 7.08155981 15.5 11.125 C15.76027957 14.16159495 16.3100858 14.9350858 18.5 17.125 C18.6953125 19.7265625 18.6953125 19.7265625 18.625 22.75 C18.60695313 23.75289062 18.58890625 24.75578125 18.5703125 25.7890625 C18.54710938 26.55992188 18.52390625 27.33078125 18.5 28.125 C16.52 28.125 14.54 28.125 12.5 28.125 C11.84 25.155 11.18 22.185 10.5 19.125 C8.19 18.465 5.88 17.805 3.5 17.125 C3.51160156 17.83527344 3.52320312 18.54554687 3.53515625 19.27734375 C3.54869141 20.65599609 3.54869141 20.65599609 3.5625 22.0625 C3.57410156 22.97902344 3.58570312 23.89554688 3.59765625 24.83984375 C3.5 27.125 3.5 27.125 2.5 28.125 C0.50041636 28.16580783 -1.50045254 28.16754356 -3.5 28.125 C-3.52886338 23.64584672 -3.54675187 19.16671709 -3.5625 14.6875 C-3.57087891 13.40810547 -3.57925781 12.12871094 -3.58789062 10.81054688 C-3.59111328 9.59560547 -3.59433594 8.38066406 -3.59765625 7.12890625 C-3.60289307 6.00299072 -3.60812988 4.8770752 -3.61352539 3.71704102 C-3.46314571 0.28353325 -3.42370175 0.17118509 0 0 Z " fill="#0FAED9" transform="translate(106.5,69.875)"/>
<path d="M0 0 C3.49041566 1.03158034 5.40211212 2.98108894 7.9296875 5.5703125 C9.1560632 8.02306391 9.04384064 9.6208906 9.02734375 12.359375 C9.02412109 13.30039063 9.02089844 14.24140625 9.01757812 15.2109375 C9.00919922 16.19578125 9.00082031 17.180625 8.9921875 18.1953125 C8.98767578 19.18789062 8.98316406 20.18046875 8.97851562 21.203125 C8.96670895 23.6589141 8.9502415 26.11458354 8.9296875 28.5703125 C6.9496875 28.5703125 4.9696875 28.5703125 2.9296875 28.5703125 C2.9296875 26.5903125 2.9296875 24.6103125 2.9296875 22.5703125 C-0.3703125 22.5703125 -3.6703125 22.5703125 -7.0703125 22.5703125 C-7.0703125 24.5503125 -7.0703125 26.5303125 -7.0703125 28.5703125 C-9.0503125 28.5703125 -11.0303125 28.5703125 -13.0703125 28.5703125 C-13.27535599 25.21706285 -13.39849445 21.86543847 -13.5078125 18.5078125 C-13.56646484 17.56486328 -13.62511719 16.62191406 -13.68554688 15.65039062 C-13.78240753 11.6791036 -13.83565637 8.74448563 -11.6237793 5.35107422 C-8.0642891 1.61510789 -5.31640657 -0.47578736 0 0 Z M-5.8828125 7.6328125 C-7.67873387 10.56300001 -7.26008824 13.2176078 -7.0703125 16.5703125 C-3.7703125 16.5703125 -0.4703125 16.5703125 2.9296875 16.5703125 C2.9709375 15.2915625 3.0121875 14.0128125 3.0546875 12.6953125 C3.08949219 11.61636719 3.08949219 11.61636719 3.125 10.515625 C3.11300439 8.33167605 3.11300439 8.33167605 0.9296875 6.5703125 C-1.84488354 6.21459826 -3.44928046 6.20625923 -5.8828125 7.6328125 Z " fill="#0DADD9" transform="translate(309.0703125,69.4296875)"/>
<path d="M0 0 C0 1.98 0 3.96 0 6 C-0.91523438 6.02578125 -1.83046875 6.0515625 -2.7734375 6.078125 C-4.55621094 6.16320312 -4.55621094 6.16320312 -6.375 6.25 C-7.55835938 6.29640625 -8.74171875 6.3428125 -9.9609375 6.390625 C-13.11291753 6.65648799 -13.11291753 6.65648799 -14.4140625 9.046875 C-14.60742188 9.69140625 -14.80078125 10.3359375 -15 11 C-14.21753906 10.98839844 -13.43507812 10.97679688 -12.62890625 10.96484375 C-11.61699219 10.95582031 -10.60507813 10.94679688 -9.5625 10.9375 C-8.55316406 10.92589844 -7.54382813 10.91429688 -6.50390625 10.90234375 C-4 11 -4 11 -3 12 C-3 13.65 -3 15.3 -3 17 C-6.96 17 -10.92 17 -15 17 C-14.34 18.32 -13.68 19.64 -13 21 C-9.89069059 21.70672206 -9.89069059 21.70672206 -6.375 21.75 C-5.18648437 21.80671875 -3.99796875 21.8634375 -2.7734375 21.921875 C-1.40058594 21.96054688 -1.40058594 21.96054688 0 22 C0 23.98 0 25.96 0 28 C-12.77525797 29.18380769 -12.77525797 29.18380769 -17.5546875 26.640625 C-21.30402203 22.87573307 -22.49474551 19.25685151 -22.875 14 C-22.49474551 8.74314849 -21.30402203 5.12426693 -17.5546875 1.359375 C-12.214758 -1.48205538 -5.85118722 -0.54219496 0 0 Z " fill="#0BACD8" transform="translate(150,70)"/>
<path d="M0 0 C3.0078005 1.78384705 5.40988587 3.81977173 7 7 C8.15972891 19.2725743 8.15972891 19.2725743 6.01171875 24.32421875 C3.19362747 27.60273058 0.24149734 28.44088845 -4 28.8125 C-7.65120884 28.54224436 -9.92768975 27.88695006 -12.625 25.375 C-15.8979752 20.77970531 -15.89578489 15.81677266 -15.64453125 10.3359375 C-14.80949253 6.01397954 -13.48927774 3.81040491 -10.06640625 1.0859375 C-6.59112759 -0.74039041 -3.77822733 -1.11664208 0 0 Z M-7.640625 7.171875 C-9.51570303 9.69353166 -9.3663486 11.45170793 -9.3125 14.5625 C-9.30863281 15.53316406 -9.30476563 16.50382812 -9.30078125 17.50390625 C-9.23989886 20.17172335 -9.23989886 20.17172335 -7 22 C-4 22.33333333 -4 22.33333333 -1 22 C1.28027649 20.14362178 1.28027649 20.14362178 1.265625 17.25 C1.26046875 16.1775 1.2553125 15.105 1.25 14 C1.25515625 12.9275 1.2603125 11.855 1.265625 10.75 C1.28027649 7.85637822 1.28027649 7.85637822 -1 6 C-3.7669481 5.64526306 -5.33358708 5.52399077 -7.640625 7.171875 Z " fill="#0BACD8" transform="translate(93,70)"/>
<path d="M0 0 C3.046875 -0.50390625 3.046875 -0.50390625 6.75 -0.5625 C8.56757813 -0.62630859 8.56757813 -0.62630859 10.421875 -0.69140625 C14.42754579 0.08261529 16.21662274 0.95952089 18.89257812 3.9699707 C21.1725564 8.14942824 20.60780988 12.74864975 20.375 17.375 C20.34792969 18.39722656 20.32085937 19.41945313 20.29296875 20.47265625 C20.22255823 22.98396496 20.12415134 25.49086959 20 28 C18.33388095 28.042721 16.66617115 28.04063832 15 28 C13.45429669 26.45429669 13.80175898 24.9306528 13.71875 22.78125 C13.68136719 21.93175781 13.64398438 21.08226563 13.60546875 20.20703125 C13.53515625 18.40234375 13.46484375 16.59765625 13.39453125 14.79296875 C13.35714844 13.94347656 13.31976563 13.09398438 13.28125 12.21875 C13.25095703 11.43435547 13.22066406 10.64996094 13.18945312 9.84179688 C13.19408532 7.98373804 13.19408532 7.98373804 12 7 C9.36 6.67 6.72 6.34 4 6 C4 13.26 4 20.52 4 28 C2.35 28 0.7 28 -1 28 C-3.52624234 25.47375766 -2.18554982 18.52222101 -2.1875 15.125 C-2.19974609 14.00996094 -2.21199219 12.89492187 -2.22460938 11.74609375 C-2.22654297 10.67746094 -2.22847656 9.60882813 -2.23046875 8.5078125 C-2.23457764 7.52441895 -2.23868652 6.54102539 -2.24291992 5.52783203 C-2 3 -2 3 0 0 Z " fill="#0FAED9" transform="translate(333,70)"/>
<path d="M0 0 C2.78751915 1.38169239 3.85559291 2.54177723 6 5 C6.875 8.8125 6.875 8.8125 7 12 C5.02 12 3.04 12 1 12 C0.67 10.68 0.34 9.36 0 8 C-1.9914056 7.61866701 -3.99279077 7.28674418 -6 7 C-7.33901792 8.11126659 -7.33901792 8.11126659 -7.09765625 10.94140625 C-7.08605469 12.13636719 -7.07445312 13.33132812 -7.0625 14.5625 C-7.05347656 15.76003906 -7.04445312 16.95757812 -7.03515625 18.19140625 C-7.02355469 19.11824219 -7.01195312 20.04507813 -7 21 C-5.35 21.33 -3.7 21.66 -2 22 C-0.68 20.02 0.64 18.04 2 16 C3.65 16.33 5.3 16.66 7 17 C7.4375 19.0625 7.4375 19.0625 7 22 C4.67006863 25.44858344 1.99678591 28.30970487 -2 29.69140625 C-6.04311022 30.06255113 -8.8193526 28.90634929 -12 26.4375 C-16.14645053 21.76557763 -15.97684172 16.55516587 -15.6796875 10.55859375 C-14.82987194 6.10927208 -13.61893325 3.82821145 -10.06640625 1.05078125 C-6.56235454 -0.73105223 -3.78890158 -1.08144762 0 0 Z " fill="#0FAED9" transform="translate(262,70)"/>
<path d="M0 0 C1.98 0 3.96 0 6 0 C6 9.24 6 18.48 6 28 C4.02 28 2.04 28 0 28 C-1.77449594 26.22550406 -1.13030072 23.64982739 -1.1328125 21.25 C-1.13410156 20.0846875 -1.13539063 18.919375 -1.13671875 17.71875 C-1.13285156 16.4915625 -1.12898438 15.264375 -1.125 14 C-1.12886719 12.7728125 -1.13273437 11.545625 -1.13671875 10.28125 C-1.13542969 9.1159375 -1.13414062 7.950625 -1.1328125 6.75 C-1.13168457 5.67234375 -1.13055664 4.5946875 -1.12939453 3.484375 C-1 1 -1 1 0 0 Z " fill="#19B1DA" transform="translate(322,70)"/>
</svg>
